<svg xmlns="http://www.w3.org/2000/svg" viewBox="0 0 64 64">
  <defs>
    <!-- V and Plus gradient (Warm Amber Gold) -->
    <linearGradient id="vGrad" x1="0%" y1="0%" x2="100%" y2="100%">
      <stop offset="0%" stop-color="#FFD700"/>
      <stop offset="60%" stop-color="#F59E0B"/>
      <stop offset="100%" stop-color="#D97706"/>
    </linearGradient>
  </defs>

  <!-- Left Side: Bold V Letter -->
  <path
    d="M 4 14 C 4 14, 6 12, 10 14 L 18 46 C 19 49, 21 49, 22 46 L 30 14 C 31 11, 34 11, 35 12 C 35 12, 33 14, 32 17 L 23 51 C 21 56, 17 56, 15 51 L 6 17 C 5 14, 4 14, 4 14 Z"
    fill="url(#vGrad)"
  />

  <!-- Right Side: Bold Side-by-Side Plus Sign (+) in matching Warm Amber Gold -->
  <g fill="url(#vGrad)">
    <!-- Vertical bar -->
    <rect x="44" y="16" width="9" height="32" rx="4.5" />
    <!-- Horizontal bar -->
    <rect x="32.5" y="27.5" width="32" height="9" rx="4.5" />
  </g>
</svg>
